<svg height="511pt" viewBox="0 -5 511.99974 511" width="511pt" xmlns="http://www.w3.org/2000/svg" xmlns:xlink="http://www.w3.org/1999/xlink"><linearGradient id="a" gradientUnits="userSpaceOnUse" x1="146.5179700744" x2="354.910392167" y1="106.9104844298" y2="315.3030069146"><stop offset="0" stop-color="#ecf7ff"/><stop offset="1" stop-color="#c2e0ff"/></linearGradient><linearGradient id="b"><stop offset=".0029" stop-color="#c2e0ff" stop-opacity="0"/><stop offset=".0763" stop-color="#bfdcfd" stop-opacity=".07451"/><stop offset="1" stop-color="#9eb2e7"/></linearGradient><linearGradient id="c" gradientUnits="userSpaceOnUse" x1="481.1056965876" x2="327.7841185504" xlink:href="#b" y1="473.4657980124" y2="320.1442199752"/><linearGradient id="d" gradientUnits="userSpaceOnUse" x1="256.000483" x2="256.000483" xlink:href="#b" y1="401.6151004724" y2="493.4770756306"/><radialGradient id="e" cx="195.9866281932" cy="182.3610454774" gradientUnits="userSpaceOnUse" r="290.5769907396"><stop offset="0" stop-color="#8be1e2"/><stop offset=".1873" stop-color="#87e1e1"/><stop offset=".3558" stop-color="#7ce2dd"/><stop offset=".5172" stop-color="#6ae2d7"/><stop offset=".6741" stop-color="#50e4ce"/><stop offset=".8278" stop-color="#2fe5c2"/><stop offset=".9772" stop-color="#07e7b4"/><stop offset="1" stop-color="#00e7b2"/></radialGradient><linearGradient id="f" gradientUnits="userSpaceOnUse" x1="396.3857229296" x2="281.0921078992" y1="365.2359789584" y2="249.942363928"><stop offset=".0029" stop-color="#00e7b2" stop-opacity="0"/><stop offset=".4308" stop-color="#1bc4b7" stop-opacity=".427451"/><stop offset="1" stop-color="#3b9abe"/></linearGradient><linearGradient id="g" gradientUnits="userSpaceOnUse" x1="244.406187822" x2="313.5389673314" y1="213.256544243" y2="282.3892233602"><stop offset="0" stop-color="#f9f9f9"/><stop offset="1" stop-color="#e6e6e6"/></linearGradient><path d="m430.613281 39.335938-85.210937-25.664063c-58.308594-17.5625-120.496094-17.5625-178.800782 0l-85.214843 25.664063c-12.84375 3.867187-23.171875 13.46875-27.96875 25.996093l-40.757813 106.429688c-30.183594 78.820312-5.125 168.105469 61.660156 219.707031l111.429688 86.097656c41.375 31.972656 99.125 31.972656 140.5 0l111.429688-86.097656c66.785156-51.601562 91.84375-140.886719 61.660156-219.707031l-40.753906-106.429688c-4.800782-12.527343-15.128907-22.128906-27.972657-25.996093zm0 0" fill="url(#a)"/><path d="m389.386719 119.714844c-33.703125-34.941406-81.003907-56.679688-133.386719-56.679688-102.351562 0-185.324219 82.972656-185.324219 185.324219 0 52.382813 21.738281 99.683594 56.679688 133.390625l119.425781 119.425781c27.785156 2.230469 56.214844-5.640625 79.46875-23.609375l111.429688-86.097656c47.277343-36.53125 73.640624-91.945312 74.300781-149.164062zm0 0" fill="url(#c)"/><path d="m64.21875 383.085938c3.253906 2.890624 6.617188 5.691406 10.101562 8.382812l111.429688 86.097656c41.378906 31.972656 99.125 31.972656 140.5 0l111.429688-86.097656c3.484374-2.691406 6.847656-5.492188 10.105468-8.382812zm0 0" fill="url(#d)"/><path d="m441.324219 248.359375c0 102.351563-82.972657 185.324219-185.324219 185.324219s-185.324219-82.972656-185.324219-185.324219 82.972657-185.324219 185.324219-185.324219 185.324219 82.972656 185.324219 185.324219zm0 0" fill="url(#e)"/><path d="m441.324219 248.359375c0-5.167969-.222657-10.28125-.636719-15.34375l-71.375-71.375c-7.558594-7.558594-19.816406-7.558594-27.378906 0l-103.59375 103.597656c-7.5625 7.5625-19.820313 7.5625-27.382813 0l-40.890625-40.890625c-7.558594-7.5625-19.820312-7.5625-27.378906 0l-18.167969 18.164063c-7.558593 7.5625-7.558593 19.820312 0 27.382812l161.378907 161.378907c88.136718-14.296876 155.425781-90.742188 155.425781-182.914063zm0 0" fill="url(#f)"/><path d="m207.761719 353.132812c9.324219 9.324219 24.449219 9.324219 33.773437 0l145.945313-145.945312c7.558593-7.558594 7.558593-19.820312 0-27.378906l-18.167969-18.167969c-7.558594-7.558594-19.816406-7.558594-27.378906 0l-103.59375 103.597656c-7.5625 7.5625-19.820313 7.5625-27.382813 0l-40.890625-40.890625c-7.558594-7.5625-19.820312-7.5625-27.378906 0l-18.167969 18.164063c-7.558593 7.5625-7.558593 19.820312 0 27.382812zm0 0" fill="url(#g)"/></svg>