<?xml version="1.0" encoding="UTF-8"?>
<svg width="43px" height="35px" viewBox="0 0 43 35" version="1.1" xmlns="http://www.w3.org/2000/svg" xmlns:xlink="http://www.w3.org/1999/xlink">
    <!-- Generator: Sketch 55.2 (78181) - https://sketchapp.com -->
    <title>crown</title>
    <desc>Created with Sketch.</desc>
    <g id="版二" stroke="none" stroke-width="1" fill="none" fill-rule="evenodd">
        <g id="完成兌換" transform="translate(-110.000000, -204.000000)" fill-rule="nonzero">
            <g id="crown" transform="translate(133.000000, 219.872519) scale(-1, 1) rotate(19.000000) translate(-133.000000, -219.872519) translate(111.000000, 205.372519)">
                <path d="M35.94931,24.765625 L8.05102371,24.765625 C7.62479249,24.765625 7.22659833,24.5588861 6.98661385,24.213229 C3.3057383,18.9146826 3.02336424,8.72222172 3.00200261,7.20919379 C3.00066751,7.14989151 3,7.08993391 3,7.03030401 C3,6.33276475 3.57542886,5.76693555 4.28603675,5.765625 L4.28870695,5.765625 C4.99797974,5.765625 5.57440994,6.32883302 5.57708015,7.02538943 C5.57708015,7.03390795 5.5774139,7.10860928 5.58041794,7.24097457 C5.69390151,10.8394123 8.71156532,13.7321198 12.4044568,13.7321198 C16.1691099,13.7321198 19.2318333,10.7257223 19.2318333,7.03030401 C19.2318333,6.33178182 19.8089311,5.765625 20.5202066,5.765625 L23.4797934,5.765625 C24.1914026,5.765625 24.7681666,6.33178182 24.7681666,7.03030401 C24.7681666,10.7257223 27.8312238,13.7321198 31.595877,13.7321198 C35.2921062,13.7321198 38.3117727,10.8341701 38.4202496,7.2311455 C38.422586,7.10467755 38.4232536,7.03390795 38.4232536,7.02571705 C38.4259238,6.32883302 39.0020202,5.765625 39.7116268,5.765625 L39.7139633,5.765625 C40.4245711,5.76693555 41,6.33276475 41,7.03030401 C41,7.09026161 40.9993324,7.14989151 40.9983311,7.20952141 C40.9766358,8.72222172 40.6942617,18.9150103 37.0137199,24.2135566 C36.7737354,24.5588861 36.3752075,24.765625 35.94931,24.765625 Z" id="路徑" fill="#FFF780"></path>
                <path d="M39.7136182,5.765625 C39.7129506,5.765625 39.7122831,5.765625 39.7112817,5.765625 C39.0020027,5.765625 38.4255674,6.32884273 38.4228972,7.02541115 C38.4228972,7.03392982 38.4225635,7.10470064 38.4198932,7.23117077 C38.3114153,10.8339299 35.2917223,13.7322572 31.5954606,13.7322572 C27.8307744,13.7322572 24.7680241,10.7258078 24.7680241,7.03032581 C24.7680241,6.33179158 24.1909212,5.765625 23.4796395,5.765625 L22,5.765625 L22,24.765625 L35.9489319,24.765625 C36.3751669,24.765625 36.7733646,24.5588824 37.0133511,24.2135471 C40.694259,18.9149094 40.9766356,8.721945 40.9979974,7.20921868 C40.9993325,7.14991538 41,7.08995674 41,7.03032581 C40.9996662,6.33277453 40.4242323,5.76693557 39.7136182,5.765625 L39.7136182,5.765625 Z" id="路徑" fill="#FFC02E"></path>
                <path d="M22,0.765625 C19.7944195,0.765625 18,2.56011646 18,4.76578536 C18,6.97145425 19.7944195,8.765625 22,8.765625 C24.2055805,8.765625 26,6.97145425 26,4.76578536 C26,2.56011646 24.2055805,0.765625 22,0.765625 Z" id="路徑" fill="#FFC02E"></path>
                <path d="M22,0.765625 L22,8.765625 C24.2057574,8.7653043 26,6.97120548 26,4.765625 C26,2.56004452 24.2054366,0.765945718 22,0.765625 L22,0.765625 Z" id="路徑" fill="#FFA73B"></path>
                <path d="M4.00016036,4.765625 C1.79449146,4.765625 0,6.56004452 0,8.765625 C0,10.9712056 1.79449146,12.765625 4.00016036,12.765625 C6.20582925,12.765625 8,10.9712056 8,8.765625 C8,6.56004452 6.20582925,4.765625 4.00016036,4.765625 Z" id="路徑" fill="#FFC02E"></path>
                <path d="M39.9998396,4.765625 C37.7941707,4.765625 36,6.56011646 36,8.76578536 C36,10.9711335 37.7941707,12.765625 39.9998396,12.765625 C42.2055085,12.765625 44,10.9711335 44,8.76578536 C44,6.56011646 42.2055085,4.765625 39.9998396,4.765625 Z" id="路徑" fill="#FFA73B"></path>
                <path d="M36.6894331,28.765625 L8.3105669,28.765625 C7.58669938,28.765625 7,28.2035275 7,27.5100138 L7,23.765625 L38,23.765625 L38,27.5100138 C38,28.2035275 37.4133006,28.765625 36.6894331,28.765625 L36.6894331,28.765625 Z" id="路徑" fill="#FFC02E"></path>
                <path d="M22,28.765625 L35.7316817,28.765625 C36.432214,28.765625 37,28.2035275 37,27.5100138 L37,23.765625 L22,23.765625 L22,28.765625 Z" id="路徑" fill="#FFA73B"></path>
            </g>
        </g>
    </g>
</svg>