<svg height="511pt" viewBox="0 -5 511.99974 511" width="511pt" xmlns="http://www.w3.org/2000/svg" xmlns:xlink="http://www.w3.org/1999/xlink"><linearGradient id="a" gradientUnits="userSpaceOnUse" x1="146.5179700744" x2="354.910392167" y1="106.9104844298" y2="315.3030069146"><stop offset="0" stop-color="#ecf7ff"/><stop offset="1" stop-color="#c2e0ff"/></linearGradient><linearGradient id="b"><stop offset=".0029" stop-color="#c2e0ff" stop-opacity="0"/><stop offset=".0763" stop-color="#bfdcfd" stop-opacity=".07451"/><stop offset="1" stop-color="#9eb2e7"/></linearGradient><linearGradient id="c" gradientUnits="userSpaceOnUse" x1="481.1056965876" x2="327.7841185504" xlink:href="#b" y1="473.4657980124" y2="320.1442199752"/><linearGradient id="d" gradientUnits="userSpaceOnUse" x1="256.000483" x2="256.000483" xlink:href="#b" y1="401.6151004724" y2="493.4770756306"/><radialGradient id="e" cx="195.9866281932" cy="182.3610454774" gradientUnits="userSpaceOnUse" r="290.5769907396"><stop offset="0" stop-color="#ff6e3a"/><stop offset=".2085" stop-color="#ff6a3c"/><stop offset=".396" stop-color="#ff5f44"/><stop offset=".5755" stop-color="#ff4d50"/><stop offset=".7501" stop-color="#ff3361"/><stop offset=".9195" stop-color="#ff1278"/><stop offset="1" stop-color="#ff0084"/></radialGradient><linearGradient id="f" gradientUnits="userSpaceOnUse" x1="378.3933324534" x2="249.5525931706" y1="370.7534338782" y2="241.9125942032"><stop offset="0" stop-color="#ff0084" stop-opacity="0"/><stop offset=".0737" stop-color="#f4087e" stop-opacity=".07451"/><stop offset=".3347" stop-color="#d2216b" stop-opacity=".333333"/><stop offset=".583" stop-color="#ba335e" stop-opacity=".584314"/><stop offset=".8111" stop-color="#ab3d56" stop-opacity=".811765"/><stop offset="1" stop-color="#a64153"/></linearGradient><linearGradient id="g" gradientTransform="matrix(.709873 .709873 -.709873 .709873 412.421594 -488.756688)" gradientUnits="userSpaceOnUse" x1="280.7596" x2="537.2682" y1="629.365" y2="629.365"><stop offset="0" stop-color="#f9f9f9"/><stop offset="1" stop-color="#e6e6e6"/></linearGradient><path d="m430.613281 39.335938-85.210937-25.664063c-58.308594-17.5625-120.496094-17.5625-178.800782 0l-85.214843 25.664063c-12.84375 3.867187-23.171875 13.46875-27.96875 25.996093l-40.757813 106.429688c-30.183594 78.820312-5.125 168.105469 61.660156 219.707031l111.429688 86.097656c41.375 31.972656 99.125 31.972656 140.5 0l111.429688-86.097656c66.785156-51.601562 91.84375-140.886719 61.660156-219.707031l-40.753906-106.429688c-4.800782-12.527343-15.128907-22.128906-27.972657-25.996093zm0 0" fill="url(#a)"/><path d="m389.386719 119.714844c-33.703125-34.941406-81.003907-56.679688-133.386719-56.679688-102.351562 0-185.324219 82.972656-185.324219 185.324219 0 52.382813 21.738281 99.683594 56.679688 133.390625l119.425781 119.425781c27.785156 2.230469 56.214844-5.640625 79.46875-23.609375l111.429688-86.097656c47.277343-36.53125 73.640624-91.945312 74.300781-149.164062zm0 0" fill="url(#c)"/><path d="m64.21875 383.085938c3.253906 2.890624 6.617188 5.691406 10.101562 8.382812l111.429688 86.097656c41.378906 31.972656 99.125 31.972656 140.5 0l111.429688-86.097656c3.484374-2.691406 6.847656-5.492188 10.105468-8.382812zm0 0" fill="url(#d)"/><path d="m441.324219 248.359375c0 102.351563-82.972657 185.324219-185.324219 185.324219s-185.324219-82.972656-185.324219-185.324219 82.972657-185.324219 185.324219-185.324219 185.324219 82.972656 185.324219 185.324219zm0 0" fill="url(#e)"/><path d="m441.285156 251.554688-103.324218-103.320313c-7.558594-7.5625-19.820313-7.5625-27.378907 0l-40.890625 40.890625c-7.5625 7.558594-19.820312 7.558594-27.378906 0l-40.894531-40.890625c-7.558594-7.5625-19.816407-7.5625-27.378907 0l-18.164062 18.164063c-7.5625 7.5625-7.5625 19.820312 0 27.382812l40.890625 40.890625c7.558594 7.558594 7.558594 19.816406 0 27.378906l-40.894531 40.890625c-7.558594 7.5625-7.558594 19.820313 0 27.378906l103.324218 103.324219c99.8125-1.6875 180.398438-82.277343 182.089844-182.089843zm0 0" fill="url(#f)"/><path d="m356.128906 302.941406-40.894531-40.890625c-7.558594-7.5625-7.558594-19.820312 0-27.378906l40.894531-40.894531c7.558594-7.558594 7.558594-19.816406 0-27.378906l-18.167968-18.164063c-7.558594-7.5625-19.820313-7.5625-27.378907 0l-40.890625 40.890625c-7.5625 7.558594-19.820312 7.558594-27.382812 0l-40.890625-40.890625c-7.558594-7.5625-19.820313-7.5625-27.378907 0l-18.167968 18.164063c-7.558594 7.558593-7.558594 19.820312 0 27.378906l40.894531 40.890625c7.558594 7.5625 7.558594 19.820312 0 27.382812l-40.894531 40.890625c-7.558594 7.558594-7.558594 19.820313 0 27.378906l18.167968 18.167969c7.558594 7.558594 19.820313 7.558594 27.378907 0l40.890625-40.894531c7.5625-7.558594 19.820312-7.558594 27.382812 0l40.890625 40.894531c7.558594 7.558594 19.820313 7.558594 27.378907 0l18.167968-18.167969c7.558594-7.558593 7.558594-19.816406 0-27.378906zm0 0" fill="url(#g)"/></svg>