<?xml version="1.0" encoding="UTF-8"?>
<svg width="97px" height="22px" viewBox="0 0 97 22" version="1.1" xmlns="http://www.w3.org/2000/svg" xmlns:xlink="http://www.w3.org/1999/xlink">
    <!-- Generator: Sketch 55.2 (78181) - https://sketchapp.com -->
    <title>logo</title>
    <desc>Created with Sketch.</desc>
    <defs>
        <polygon id="path-1" points="0.0145440382 0.0171881279 13.8670574 0.0171881279 13.8670574 22 0.0145440382 22"></polygon>
    </defs>
    <g id="版二" stroke="none" stroke-width="1" fill="none" fill-rule="evenodd">
        <g id="首頁" transform="translate(-140.000000, -35.000000)">
            <g id="logo" transform="translate(139.000000, 35.000000)">
                <polygon id="Fill-1" fill="#565659" points="0.986013986 20.9693933 1.50193198 20.9693933 7.59957748 4.96061382 13.3369548 20.5057072 5.46847666 20.5057072 5.77268368 21 15.986014 21 8.68319959 1"></polygon>
                <polygon id="Fill-2" fill="#565659" points="19.986014 1 22.2702567 1.01812797 22.2702567 20.5157796 29.986014 20.5157796 29.986014 21 20.0500536 20.9981581"></polygon>
                <g id="群組" transform="translate(33.986014, 0.000000)">
                    <path d="M2.26657988,20.7485817 C2.26657988,20.7485817 2.91654169,20.7584265 5.88481115,20.7584265 C8.85328149,20.7584265 10.8348063,19.123495 10.8348063,15.2993123 C10.8348063,10.7804721 7.11191415,10.1121342 5.83921037,10.1121342 C4.66514087,10.1121342 3.31148063,10.0694402 3.31148063,10.0694402 L2.98062385,9.62723014 C2.98062385,9.62723014 3.71827176,9.61688311 5.77171317,9.61688311 C7.82736432,9.61688311 9.1739936,7.89465479 9.1739936,5.13933059 C9.1739936,2.38390594 6.61683429,1.47607945 5.38782288,1.47607945 L2.45430645,1.47607945 L2.26657988,20.7485817 Z M6.09262617,0.713312329 C10.7465175,0.713312329 11.63282,3.95966849 11.63282,5.38615251 C11.63282,6.76672785 10.1341211,9.70940365 7.44046076,9.70237169 C10.274238,9.70237169 13.2945366,11.73481 13.2945366,15.0820247 C13.2945366,18.4307461 11.0865145,21.4437416 6.39284806,21.4437416 C3.56389201,21.4437416 0.0858781262,21.5183808 0.0858781262,21.5183808 L0.0858781262,0.804828311 C0.0858781262,0.804828311 2.70390545,0.713312329 6.09262617,0.713312329 L6.09262617,0.713312329 Z" id="Fill-3" fill="#565659"></path>
                    <polygon id="Fill-5" fill="#565659" points="18.7222551 0.671994521 20.9884332 0.671994521 20.9884332 21.4456201 18.5125317 21.4456201"></polygon>
                    <path d="M28.6745958,11.4067288 C28.6745958,17.2510941 31.6357339,21.3583635 34.9197938,21.3583635 C39.0914619,21.3583635 41.9900244,17.3594868 41.9900244,10.4270758 C41.9900244,3.54007123 37.972033,0.623212785 35.6204789,0.623212785 C31.742504,0.623212785 28.6745958,4.18731324 28.6745958,11.4067288 M26.1625351,11.2147562 C26.1625351,6.03963288 29.3825128,0.200290411 35.586429,0.200290411 C40.2963671,0.200290411 44.4476454,4.17284749 44.4476454,10.9147927 C44.4476454,16.2700347 41.1608736,21.7653132 35.2349816,21.7653132 C29.7288377,21.7653132 26.1625351,17.3284457 26.1625351,11.2147562" id="Fill-7" fill="#565659"></path>
                    <g transform="translate(49.518031, 0.000000)">
                        <mask id="mask-2" fill="white">
                            <use xlink:href="#path-1"></use>
                        </mask>
                        <g id="Clip-10"></g>
                        <polygon id="Fill-9" fill="#565659" mask="url(#mask-2)" points="0.192427268 0.0171881279 13.2225998 16.9576904 13.2225998 0.479589954 13.8671378 0.534941553 13.7974309 22.00001 0.685397845 4.8628137 0.685397845 21.3616082 0.0145440382 21.3616082"></polygon>
                    </g>
                </g>
            </g>
        </g>
    </g>
</svg>