<?xml version="1.0" encoding="UTF-8"?>
<svg width="33px" height="32px" viewBox="0 0 33 32" version="1.1" xmlns="http://www.w3.org/2000/svg" xmlns:xlink="http://www.w3.org/1999/xlink">
    <!-- Generator: Sketch 55.2 (78181) - https://sketchapp.com -->
    <title>smilecopy</title>
    <desc>Created with Sketch.</desc>
    <g id="版二" stroke="none" stroke-width="1" fill="none" fill-rule="evenodd">
        <g id="問題02copy" transform="translate(-53.000000, -288.000000)" fill="#628FCE" fill-rule="nonzero">
            <g id="smilecopy" transform="translate(53.000000, 288.000000)">
                <path d="M16.2191781,0 C7.40924058,0 0.219178082,7.1905625 0.219178082,16 C0.219178082,24.8099375 7.40974058,32 16.2191781,32 C25.0291156,32 32.2191781,24.8094375 32.2191781,16 C32.2191781,7.1900625 25.0286156,0 16.2191781,0 Z M16.2191781,30.125 C8.43061558,30.125 2.09417808,23.7885625 2.09417808,16 C2.09417808,8.2114375 8.43061558,1.875 16.2191781,1.875 C24.0077406,1.875 30.3441781,8.2114375 30.3441781,16 C30.3441781,23.7885625 24.0077406,30.125 16.2191781,30.125 Z" id="形狀"></path>
                <rect id="矩形" x="11.2191781" y="10" width="2" height="4"></rect>
                <rect id="矩形" x="19.2191781" y="10" width="2" height="4"></rect>
                <path d="M22.1652531,24 C21.8296007,23.2226389 21.3474563,22.522834 20.7337089,21.9200743 C20.1189623,21.3169148 19.4026905,20.8435821 18.6063778,20.5131686 C16.9527973,19.8255569 15.0450043,19.8260566 13.393922,20.5126689 C12.5976093,20.8435821 11.8818371,21.3169148 11.2655916,21.920574 C10.6517443,22.522834 10.1701995,23.2226389 9.83454702,24 L8,23.2074475 C8.43867648,22.1914211 9.06661337,21.2783366 9.86682322,20.4931799 C10.6660338,19.7099221 11.5950487,19.095569 12.6274872,18.6666112 C14.7665097,17.7784126 17.2304925,17.7770134 19.373512,18.6671109 C20.4059506,19.095569 21.3349655,19.7100221 22.1331768,20.4931799 C22.9333866,21.2783366 23.5618232,22.1914211 24,23.2074475 L22.1652531,24 Z" id="路徑"></path>
            </g>
        </g>
    </g>
</svg>