<?xml version="1.0" encoding="UTF-8"?>
<svg width="33px" height="32px" viewBox="0 0 33 32" version="1.1" xmlns="http://www.w3.org/2000/svg" xmlns:xlink="http://www.w3.org/1999/xlink">
    <!-- Generator: Sketch 55.2 (78181) - https://sketchapp.com -->
    <title>smile</title>
    <desc>Created with Sketch.</desc>
    <g id="版二" stroke="none" stroke-width="1" fill="none" fill-rule="evenodd">
        <g id="問題_yes" transform="translate(-53.000000, -398.000000)" fill="#628FCE" fill-rule="nonzero">
            <g id="smile" transform="translate(53.000000, 398.000000)">
                <path d="M16.2191781,0 C7.40924058,0 0.219178082,7.1905625 0.219178082,16 C0.219178082,24.8099375 7.40974058,32 16.2191781,32 C25.0291156,32 32.2191781,24.8094375 32.2191781,16 C32.2191781,7.1900625 25.0286156,0 16.2191781,0 Z M16.2191781,30.125 C8.43061558,30.125 2.09417808,23.7885625 2.09417808,16 C2.09417808,8.2114375 8.43061558,1.875 16.2191781,1.875 C24.0077406,1.875 30.3441781,8.2114375 30.3441781,16 C30.3441781,23.7885625 24.0077406,30.125 16.2191781,30.125 Z" id="形狀"></path>
                <path d="M24.3100872,16 C24.3100872,20.9626 20.4562054,25 15.7191781,25 C10.9821508,25 7.12826899,20.9626 7.12826899,16 L5.21917808,16 C5.21917808,22.0654 9.92947808,27 15.7191781,27 C21.5088781,27 26.2191781,22.0654 26.2191781,16 L24.3100872,16 Z" id="路徑"></path>
                <rect id="矩形" x="11.2191781" y="10" width="2" height="4"></rect>
                <rect id="矩形" x="19.2191781" y="10" width="2" height="4"></rect>
            </g>
        </g>
    </g>
</svg>